<?xml version="1.0" encoding="UTF-8" standalone="no"?>
<svg
   height="16"
   viewBox="0 0 16 16"
   width="16"
   version="1.1"
   id="svg1"
   xmlns="http://www.w3.org/2000/svg"
   xmlns:svg="http://www.w3.org/2000/svg">
  <defs
     id="defs1" />
  <path
     d="M 3,1 C 1.8954,1 1,1.89543 1,3 v 10 c 0,1.1046 0.89543,2 2,2 h 10 c 1.1046,0 2,-0.89543 2,-2 V 3 C 15,1.8954 14.10457,1 13,1 Z M 3,3 H 7 V 5 H 3 Z m 6,0 h 4 V 5 H 9 Z M 3,7 H 7 V 9 H 3 Z m 6,0 h 4 V 9 H 9 Z m -6,4 h 4 v 2 H 3 Z m 6,0 h 4 v 2 H 9 Z"
     fill="#a5efac"
     id="path1"
     style="fill:#a5efac;fill-opacity:1" />
</svg>
